<svg width="32" height="32" viewBox="0 0 32 32" fill="none" xmlns="http://www.w3.org/2000/svg">
  <rect width="32" height="32" rx="6" fill="#06B6D4"/>
  <!-- 「月」の左側の縦線（細め） -->
  <path d="M12 8V24" stroke="white" stroke-width="2" stroke-linecap="round"/>
  <!-- 「月」の右側のミニマルな曲線 -->
  <path d="M12 8C14.2 8 16.5 9 18.5 10.5C20.5 12 22 13.8 22 15C22 16.2 20.5 17.8 18.5 19C16.5 20.2 14.2 21.2 12 21.2" stroke="white" stroke-width="2.5" stroke-linecap="round" fill="none"/>
  <path d="M12 21.2C14.2 21.5 16.5 22.5 18.5 23.5C20.5 24.5 22 24.2 22 24.2" stroke="white" stroke-width="2.5" stroke-linecap="round" fill="none"/>
  <!-- シンプルなページの曲線 -->
  <path d="M12 11C14 10.5 16 11.5 18 13" stroke="white" stroke-width="1.5" stroke-linecap="round" fill="none" opacity="0.7"/>
  <path d="M12 14.5C14 14 16 15 18 16.5" stroke="white" stroke-width="1.5" stroke-linecap="round" fill="none" opacity="0.7"/>
  <path d="M12 18C14 17.5 16 18.5 18 20" stroke="white" stroke-width="1.5" stroke-linecap="round" fill="none" opacity="0.7"/>
</svg>



