<svg width="32" height="32" viewBox="0 0 32 32" fill="none" xmlns="http://www.w3.org/2000/svg">
  <defs>
    <linearGradient id="gradTsuki" x1="0%" y1="0%" x2="100%" y2="100%">
      <stop offset="0%" style="stop-color:#3B82F6;stop-opacity:1" />
      <stop offset="100%" style="stop-color:#8B5CF6;stop-opacity:1" />
    </linearGradient>
  </defs>
  <rect width="32" height="32" rx="6" fill="url(#gradTsuki)"/>
  <!-- 「月」の左側の縦線 -->
  <path d="M12 8V24" stroke="white" stroke-width="2.5" stroke-linecap="round"/>
  <!-- 「月」の右側のグラデーション曲線 -->
  <path d="M12 8C14.5 8 17 9.2 19 11C21 12.8 22 14.5 22 16C22 17.5 21 19 19 20.5C17 22 14.5 23 12 23" stroke="white" stroke-width="2.5" stroke-linecap="round" fill="none"/>
  <path d="M12 23C14.5 23 17 24 19 25C21 26 22 25.5 22 25.5" stroke="white" stroke-width="2.5" stroke-linecap="round" fill="none"/>
  <!-- 内側の装飾的な曲線 -->
  <path d="M12 11C14 10.5 16 11.5 18 13" stroke="white" stroke-width="1.8" stroke-linecap="round" fill="none" opacity="0.7"/>
  <path d="M12 14.5C14 14 16 15 18 16.5" stroke="white" stroke-width="1.8" stroke-linecap="round" fill="none" opacity="0.7"/>
  <path d="M12 18C14 17.5 16 18.5 18 20" stroke="white" stroke-width="1.8" stroke-linecap="round" fill="none" opacity="0.7"/>
  <!-- 小さな円の装飾 -->
  <circle cx="19" cy="13" r="1.2" fill="white" fill-opacity="0.7"/>
  <circle cx="20" cy="19" r="1.2" fill="white" fill-opacity="0.7"/>
</svg>



