<svg width="32" height="32" viewBox="0 0 32 32" fill="none" xmlns="http://www.w3.org/2000/svg">
  <rect width="32" height="32" rx="6" fill="#6366F1"/>
  <!-- 「月」の左側の縦線 -->
  <path d="M11 7V25" stroke="white" stroke-width="3" stroke-linecap="round"/>
  <!-- 「月」の右側の有機的な曲線 -->
  <path d="M11 7C14 7 17 8.5 19.5 10.8C22 13.1 23.5 15.5 23.5 16.8C23.5 18.1 22 19.8 19.5 21.5C17 23.2 14 24.5 11 24.5" stroke="white" stroke-width="2.8" stroke-linecap="round" fill="none"/>
  <path d="M11 24.5C14 25 17 26 19.5 27C22 28 23.5 27.5 23.5 27.5" stroke="white" stroke-width="2.5" stroke-linecap="round" fill="none"/>
  <!-- 流れるようなページの曲線 -->
  <path d="M11 10C13.5 9.5 16 10.5 18.5 12" stroke="white" stroke-width="2" stroke-linecap="round" fill="none" opacity="0.8"/>
  <path d="M11 13.5C13.5 13 16 14 18.5 15.5" stroke="white" stroke-width="2" stroke-linecap="round" fill="none" opacity="0.8"/>
  <path d="M11 17C13.5 16.5 16 17.5 18.5 19" stroke="white" stroke-width="2" stroke-linecap="round" fill="none" opacity="0.8"/>
  <path d="M11 20.5C13.5 20 16 21 18.5 22.5" stroke="white" stroke-width="2" stroke-linecap="round" fill="none" opacity="0.8"/>
  <!-- 中央の装飾円 -->
  <circle cx="19" cy="16" r="1.5" fill="white" fill-opacity="0.6"/>
</svg>



