<svg width="32" height="32" viewBox="0 0 32 32" fill="none" xmlns="http://www.w3.org/2000/svg">
  <rect width="32" height="32" rx="6" fill="#10B981"/>
  <!-- Book -->
  <path d="M8 9C8 7.89543 8.89543 7 10 7H18V23H10C8.89543 23 8 22.1046 8 21V9Z" fill="white" fill-opacity="0.2"/>
  <!-- AI Brain -->
  <path d="M20 10C20 10 21.5 11 22 12.5C22.5 14 22 15.5 21 16.5C20 17.5 19 17 19 17" stroke="white" stroke-width="1.5" stroke-linecap="round" fill="none"/>
  <circle cx="21" cy="13" r="1" fill="white"/>
  <circle cx="20" cy="15" r="0.8" fill="white"/>
  <circle cx="22" cy="15.5" r="0.8" fill="white"/>
  <!-- Book lines -->
  <path d="M10 12H17" stroke="white" stroke-width="1.5" stroke-linecap="round"/>
  <path d="M10 15H17" stroke="white" stroke-width="1.5" stroke-linecap="round"/>
  <!-- Book outline -->
  <path d="M10 7H18V23H10C8.89543 23 8 22.1046 8 21V9C8 7.89543 8.89543 7 10 7Z" stroke="white" stroke-width="2" stroke-linecap="round" stroke-linejoin="round"/>
</svg>



