<svg width="32" height="32" viewBox="0 0 32 32" fill="none" xmlns="http://www.w3.org/2000/svg">
  <rect width="32" height="32" rx="6" fill="#10B981"/>
  <!-- 「月」の左側の縦線 -->
  <path d="M10 8V24" stroke="white" stroke-width="2.5" stroke-linecap="round"/>
  <!-- 「月」の右側の有機的な曲線 -->
  <path d="M10 8C12.5 8 15 9.5 17.5 11.5C20 13.5 21.5 15.5 21.5 16.5C21.5 17.5 20 19 17.5 20.5C15 22 12.5 23 10 23" stroke="white" stroke-width="2.8" stroke-linecap="round" fill="none"/>
  <path d="M10 23C12.5 23.5 15 24.5 17.5 25.5C20 26.5 21.5 25.5 21.5 25.5" stroke="white" stroke-width="2.5" stroke-linecap="round" fill="none"/>
  <!-- 本のページを表現する複数の曲線 -->
  <path d="M10 11C12 10.5 14 11.5 16.5 13" stroke="white" stroke-width="1.8" stroke-linecap="round" fill="none" opacity="0.7"/>
  <path d="M10 14.5C12 14 14 15 16.5 16.5" stroke="white" stroke-width="1.8" stroke-linecap="round" fill="none" opacity="0.7"/>
  <path d="M10 18C12 17.5 14 18.5 16.5 20" stroke="white" stroke-width="1.8" stroke-linecap="round" fill="none" opacity="0.7"/>
  <!-- 小さな装飾点 -->
  <circle cx="18" cy="14" r="1" fill="white" fill-opacity="0.6"/>
  <circle cx="19" cy="19" r="1" fill="white" fill-opacity="0.6"/>
</svg>



