<svg width="32" height="32" viewBox="0 0 32 32" fill="none" xmlns="http://www.w3.org/2000/svg">
  <rect width="32" height="32" rx="6" fill="#8B5CF6"/>
  <!-- Book -->
  <path d="M9 8C7.89543 8 7 8.89543 7 10V20C7 21.1046 7.89543 22 9 22H15V8H9Z" fill="white" fill-opacity="0.2"/>
  <path d="M9 8H15V22H9V8Z" fill="white" fill-opacity="0.3"/>
  <!-- Search magnifier -->
  <circle cx="20" cy="18" r="5" stroke="white" stroke-width="2" fill="none"/>
  <path d="M23 21L25.5 23.5" stroke="white" stroke-width="2" stroke-linecap="round"/>
  <!-- Book lines -->
  <path d="M10 12H14" stroke="white" stroke-width="1.5" stroke-linecap="round"/>
  <path d="M10 15H14" stroke="white" stroke-width="1.5" stroke-linecap="round"/>
  <!-- Book outline -->
  <path d="M9 8H15V22H9C7.89543 22 7 21.1046 7 20V10C7 8.89543 7.89543 8 9 8Z" stroke="white" stroke-width="2" stroke-linecap="round" stroke-linejoin="round"/>
</svg>



