<svg width="32" height="32" viewBox="0 0 32 32" fill="none" xmlns="http://www.w3.org/2000/svg">
  <rect width="32" height="32" rx="16" fill="#6366F1"/>
  <!-- Multiple circular layers -->
  <circle cx="16" cy="16" r="11" fill="white" fill-opacity="0.1"/>
  <circle cx="16" cy="16" r="9" fill="white" fill-opacity="0.15"/>
  <!-- Curved flowing lines -->
  <path d="M9 11C9 11 11.5 9 16 9C20.5 9 23 11 23 11" stroke="white" stroke-width="2.5" stroke-linecap="round" fill="none"/>
  <!-- Flowing curved spine -->
  <path d="M9 11C9 13.5 9 16 9 18.5C9 21 9 23 9 23" stroke="white" stroke-width="3" stroke-linecap="round" fill="none"/>
  <path d="M23 11C23 13.5 23 16 23 18.5C23 21 23 23 23 23" stroke="white" stroke-width="2.5" stroke-linecap="round" fill="none"/>
  <!-- Elegant curved page lines -->
  <path d="M9 13.5C11.5 12.8 14.5 12.8 16 13.5C17.5 14.2 20.5 14.2 23 13.5" stroke="white" stroke-width="2" stroke-linecap="round" fill="none"/>
  <path d="M9 16C11.5 15.3 14.5 15.3 16 16C17.5 16.7 20.5 16.7 23 16" stroke="white" stroke-width="2" stroke-linecap="round" fill="none"/>
  <path d="M9 18.5C11.5 17.8 14.5 17.8 16 18.5C17.5 19.2 20.5 19.2 23 18.5" stroke="white" stroke-width="2" stroke-linecap="round" fill="none"/>
  <!-- Decorative dots -->
  <circle cx="13" cy="14.5" r="1" fill="white" fill-opacity="0.8"/>
  <circle cx="19" cy="17.5" r="1" fill="white" fill-opacity="0.8"/>
</svg>



