<svg width="32" height="32" viewBox="0 0 32 32" fill="none" xmlns="http://www.w3.org/2000/svg">
  <rect width="32" height="32" rx="6" fill="#EC4899"/>
  <!-- Book -->
  <path d="M8 9C8 7.89543 8.89543 7 10 7H18V23H10C8.89543 23 8 22.1046 8 21V9Z" fill="white" fill-opacity="0.2"/>
  <!-- Network nodes -->
  <circle cx="22" cy="12" r="2" fill="white"/>
  <circle cx="22" cy="18" r="2" fill="white"/>
  <circle cx="26" cy="15" r="2" fill="white"/>
  <!-- Network connections -->
  <path d="M22 12L22 18" stroke="white" stroke-width="1.5" stroke-linecap="round"/>
  <path d="M22 12L26 15" stroke="white" stroke-width="1.5" stroke-linecap="round"/>
  <path d="M22 18L26 15" stroke="white" stroke-width="1.5" stroke-linecap="round"/>
  <!-- Book lines -->
  <path d="M10 12H17" stroke="white" stroke-width="1.5" stroke-linecap="round"/>
  <path d="M10 15H17" stroke="white" stroke-width="1.5" stroke-linecap="round"/>
  <!-- Book outline -->
  <path d="M10 7H18V23H10C8.89543 23 8 22.1046 8 21V9C8 7.89543 8.89543 7 10 7Z" stroke="white" stroke-width="2" stroke-linecap="round" stroke-linejoin="round"/>
</svg>



