<svg width="32" height="32" viewBox="0 0 32 32" fill="none" xmlns="http://www.w3.org/2000/svg">
  <defs>
    <linearGradient id="gradCircle" x1="0%" y1="0%" x2="100%" y2="100%">
      <stop offset="0%" style="stop-color:#3B82F6;stop-opacity:1" />
      <stop offset="100%" style="stop-color:#8B5CF6;stop-opacity:1" />
    </linearGradient>
  </defs>
  <rect width="32" height="32" rx="16" fill="url(#gradCircle)"/>
  <!-- Circular frame -->
  <circle cx="16" cy="16" r="10" stroke="white" stroke-width="1.5" fill="none" opacity="0.5"/>
  <!-- Elegant curved book -->
  <path d="M11 10C11 10 13 8 16 8C19 8 21 10 21 10" stroke="white" stroke-width="2.5" stroke-linecap="round" fill="none"/>
  <!-- Smooth curved pages -->
  <path d="M11 10C11 12.5 11 15 11 17.5C11 20 11 22 11 22" stroke="white" stroke-width="2.5" stroke-linecap="round" fill="none"/>
  <path d="M21 10C21 12.5 21 15 21 17.5C21 20 21 22 21 22" stroke="white" stroke-width="2.5" stroke-linecap="round" fill="none"/>
  <!-- Smooth connecting curves -->
  <path d="M11 13C13 12.3 15 12.3 16 13C17 13.7 19 13.7 21 13" stroke="white" stroke-width="2" stroke-linecap="round" fill="none"/>
  <path d="M11 16C13 15.3 15 15.3 16 16C17 16.7 19 16.7 21 16" stroke="white" stroke-width="2" stroke-linecap="round" fill="none"/>
  <path d="M11 19C13 18.3 15 18.3 16 19C17 19.7 19 19.7 21 19" stroke="white" stroke-width="2" stroke-linecap="round" fill="none"/>
</svg>



