<svg width="32" height="32" viewBox="0 0 32 32" fill="none" xmlns="http://www.w3.org/2000/svg">
  <rect width="32" height="32" rx="6" fill="#F59E0B"/>
  <!-- 「月」の左側の縦線（装飾付き） -->
  <path d="M11 7V25" stroke="white" stroke-width="2.8" stroke-linecap="round"/>
  <!-- 「月」の右側の流れるような曲線 -->
  <path d="M11 7C13.5 7 16 8.2 18.2 10C20.4 11.8 22 13.8 22 15.5C22 17.2 20.4 19 18.2 20.5C16 22 13.5 23 11 23" stroke="white" stroke-width="2.5" stroke-linecap="round" fill="none"/>
  <path d="M11 23C13.5 23.2 16 24 18.2 25C20.4 26 22 25.5 22 25.5" stroke="white" stroke-width="2.5" stroke-linecap="round" fill="none"/>
  <!-- 波打つようなページの曲線 -->
  <path d="M11 10.5C13 10 15 11 17.5 12.5" stroke="white" stroke-width="2" stroke-linecap="round" fill="none" opacity="0.8"/>
  <path d="M11 13.5C13 13 15 14 17.5 15.5" stroke="white" stroke-width="2" stroke-linecap="round" fill="none" opacity="0.8"/>
  <path d="M11 16.5C13 16 15 17 17.5 18.5" stroke="white" stroke-width="2" stroke-linecap="round" fill="none" opacity="0.8"/>
  <path d="M11 19.5C13 19 15 20 17.5 21.5" stroke="white" stroke-width="2" stroke-linecap="round" fill="none" opacity="0.8"/>
</svg>



