<svg width="32" height="32" viewBox="0 0 32 32" fill="none" xmlns="http://www.w3.org/2000/svg">
  <rect width="32" height="32" rx="16" fill="#06B6D4"/>
  <!-- Circular container -->
  <circle cx="16" cy="16" r="10" stroke="white" stroke-width="1.5" fill="none" opacity="0.3"/>
  <!-- Modern curved book design -->
  <path d="M10 10C10 10 12 8.5 16 8.5C20 8.5 22 10 22 10" stroke="white" stroke-width="2.5" stroke-linecap="round" fill="none"/>
  <!-- Curved vertical lines -->
  <path d="M10 10C10 12 10 14 10 16C10 18 10 20 10 21.5" stroke="white" stroke-width="2.5" stroke-linecap="round" fill="none"/>
  <path d="M22 10C22 12 22 14 22 16C22 18 22 20 22 21.5" stroke="white" stroke-width="2.5" stroke-linecap="round" fill="none"/>
  <!-- Smooth curved connections -->
  <path d="M10 12.5C12 11.8 14 11.8 16 12.5C18 13.2 20 13.2 22 12.5" stroke="white" stroke-width="2" stroke-linecap="round" fill="none"/>
  <path d="M10 15.5C12 14.8 14 14.8 16 15.5C18 16.2 20 16.2 22 15.5" stroke="white" stroke-width="2" stroke-linecap="round" fill="none"/>
  <path d="M10 18.5C12 17.8 14 17.8 16 18.5C18 19.2 20 19.2 22 18.5" stroke="white" stroke-width="2" stroke-linecap="round" fill="none"/>
  <!-- Small circular accents -->
  <circle cx="14" cy="13" r="1.2" fill="white" fill-opacity="0.7"/>
  <circle cx="18" cy="17" r="1.2" fill="white" fill-opacity="0.7"/>
</svg>



