<svg width="32" height="32" viewBox="0 0 32 32" fill="none" xmlns="http://www.w3.org/2000/svg">
  <rect width="32" height="32" rx="16" fill="#14B8A6"/>
  <!-- Concentric circles -->
  <circle cx="16" cy="16" r="11" fill="white" fill-opacity="0.12"/>
  <circle cx="16" cy="16" r="8" fill="white" fill-opacity="0.18"/>
  <!-- Organic curved book shape -->
  <path d="M9.5 10.5C9.5 10.5 11.5 9 16 9C20.5 9 22.5 10.5 22.5 10.5" stroke="white" stroke-width="2.5" stroke-linecap="round" fill="none"/>
  <!-- Organic flowing curves -->
  <path d="M9.5 10.5C9.5 12.8 9.5 15 9.5 17.2C9.5 19.5 9.5 21.5 9.5 21.5" stroke="white" stroke-width="2.8" stroke-linecap="round" fill="none"/>
  <path d="M22.5 10.5C22.5 12.8 22.5 15 22.5 17.2C22.5 19.5 22.5 21.5 22.5 21.5" stroke="white" stroke-width="2.5" stroke-linecap="round" fill="none"/>
  <!-- Organic curved page lines -->
  <path d="M9.5 13C11.8 12.2 14.2 12.2 16 13C17.8 13.8 20.2 13.8 22.5 13" stroke="white" stroke-width="2" stroke-linecap="round" fill="none"/>
  <path d="M9.5 16C11.8 15.2 14.2 15.2 16 16C17.8 16.8 20.2 16.8 22.5 16" stroke="white" stroke-width="2" stroke-linecap="round" fill="none"/>
  <path d="M9.5 19C11.8 18.2 14.2 18.2 16 19C17.8 19.8 20.2 19.8 22.5 19" stroke="white" stroke-width="2" stroke-linecap="round" fill="none"/>
  <!-- Central circle -->
  <circle cx="16" cy="16" r="2.5" fill="white" fill-opacity="0.6"/>
  <!-- Small decorative circles -->
  <circle cx="13" cy="13.5" r="0.8" fill="white" fill-opacity="0.8"/>
  <circle cx="19" cy="18.5" r="0.8" fill="white" fill-opacity="0.8"/>
</svg>



