<svg width="32" height="32" viewBox="0 0 32 32" fill="none" xmlns="http://www.w3.org/2000/svg">
  <rect width="32" height="32" rx="6" fill="#3B82F6"/>
  <!-- Book cover -->
  <path d="M10 8C8.89543 8 8 8.89543 8 10V22C8 23.1046 8.89543 24 10 24H22C23.1046 24 24 23.1046 24 22V10C24 8.89543 23.1046 8 22 8H10Z" fill="white" fill-opacity="0.2"/>
  <!-- Book pages -->
  <path d="M10 10H22V22H10V10Z" fill="white" fill-opacity="0.3"/>
  <!-- Book spine -->
  <path d="M10 8V24" stroke="white" stroke-width="1.5" stroke-linecap="round"/>
  <!-- Text lines -->
  <path d="M12 13H20" stroke="white" stroke-width="1.5" stroke-linecap="round"/>
  <path d="M12 16H20" stroke="white" stroke-width="1.5" stroke-linecap="round"/>
  <path d="M12 19H16" stroke="white" stroke-width="1.5" stroke-linecap="round"/>
  <!-- Book outline -->
  <path d="M10 8H22C23.1046 8 24 8.89543 24 10V22C24 23.1046 23.1046 24 22 24H10C8.89543 24 8 23.1046 8 22V10C8 8.89543 8.89543 8 10 8Z" stroke="white" stroke-width="2" stroke-linecap="round" stroke-linejoin="round"/>
</svg>



