<svg width="32" height="32" viewBox="0 0 32 32" fill="none" xmlns="http://www.w3.org/2000/svg">
  <rect width="32" height="32" rx="16" fill="#F59E0B"/>
  <!-- Circular book with flowing curves -->
  <path d="M10 11C10 11 12 9 16 9C20 9 22 11 22 11" stroke="white" stroke-width="2.5" stroke-linecap="round" fill="none"/>
  <!-- Flowing curved pages -->
  <path d="M10 11C10 13 10 15 10 17C10 19 10 21 10 21" stroke="white" stroke-width="2.5" stroke-linecap="round" fill="none"/>
  <path d="M22 11C22 13 22 15 22 17C22 19 22 21 22 21" stroke="white" stroke-width="2.5" stroke-linecap="round" fill="none"/>
  <!-- Curved connecting arcs -->
  <path d="M10 13C12 12.5 14 12.5 16 13C18 13.5 20 13.5 22 13" stroke="white" stroke-width="1.8" stroke-linecap="round" fill="none"/>
  <path d="M10 16C12 15.5 14 15.5 16 16C18 16.5 20 16.5 22 16" stroke="white" stroke-width="1.8" stroke-linecap="round" fill="none"/>
  <path d="M10 19C12 18.5 14 18.5 16 19C18 19.5 20 19.5 22 19" stroke="white" stroke-width="1.8" stroke-linecap="round" fill="none"/>
  <!-- Decorative circles -->
  <circle cx="13" cy="14" r="1" fill="white" fill-opacity="0.6"/>
  <circle cx="19" cy="18" r="1" fill="white" fill-opacity="0.6"/>
</svg>



