<svg width="32" height="32" viewBox="0 0 32 32" fill="none" xmlns="http://www.w3.org/2000/svg">
  <rect width="32" height="32" rx="16" fill="#EC4899"/>
  <!-- Circular background -->
  <circle cx="16" cy="16" r="11" fill="white" fill-opacity="0.15"/>
  <!-- Wavy curved lines for pages -->
  <path d="M8 12C10 11 14 11 16 12C18 13 22 13 24 12" stroke="white" stroke-width="2.5" stroke-linecap="round" fill="none"/>
  <path d="M8 16C10 15 14 15 16 16C18 17 22 17 24 16" stroke="white" stroke-width="2.5" stroke-linecap="round" fill="none"/>
  <path d="M8 20C10 19 14 19 16 20C18 21 22 21 24 20" stroke="white" stroke-width="2.5" stroke-linecap="round" fill="none"/>
  <!-- Curved spine -->
  <path d="M8 12Q8 16 8 20" stroke="white" stroke-width="3" stroke-linecap="round" fill="none"/>
  <!-- Small decorative circles -->
  <circle cx="12" cy="14" r="1.5" fill="white" fill-opacity="0.7"/>
  <circle cx="20" cy="18" r="1.5" fill="white" fill-opacity="0.7"/>
</svg>



