<svg width="32" height="32" viewBox="0 0 32 32" fill="none" xmlns="http://www.w3.org/2000/svg">
  <rect width="32" height="32" rx="6" fill="#6366F1"/>
  <!-- 3D Book cover (front) -->
  <path d="M10 8H20L22 10V22L20 24H10C8.89543 24 8 23.1046 8 22V10C8 8.89543 8.89543 8 10 8Z" fill="white" fill-opacity="0.3"/>
  <!-- 3D Book cover (side) -->
  <path d="M20 8L22 10L22 22L20 24L20 8Z" fill="white" fill-opacity="0.15"/>
  <!-- Book pages -->
  <path d="M10 10H20V22H10V10Z" fill="white" fill-opacity="0.4"/>
  <!-- Text lines -->
  <path d="M12 13H18" stroke="white" stroke-width="1.5" stroke-linecap="round"/>
  <path d="M12 16H18" stroke="white" stroke-width="1.5" stroke-linecap="round"/>
  <path d="M12 19H15" stroke="white" stroke-width="1.5" stroke-linecap="round"/>
  <!-- Book outline -->
  <path d="M10 8H20L22 10V22L20 24H10C8.89543 24 8 23.1046 8 22V10C8 8.89543 8.89543 8 10 8Z" stroke="white" stroke-width="2" stroke-linecap="round" stroke-linejoin="round"/>
  <path d="M20 8L22 10M20 24L22 22" stroke="white" stroke-width="2" stroke-linecap="round"/>
</svg>



